# xmcd
#
# Track frame offsets: 
#        150
#        25984
#        46560
#        82464
#        97551
#        126824
#        138338
#        162936
#
# Disc length: 2643 seconds
#
# Revision: 1
# Processed by: cddbd v1.5.2PL0 Copyright (c) Steve Scherf et al.
# Submitted via: ExactAudioCopy v1.0b4
#
DISCID=5b0a5108
DTITLE=Thelonious Monk - Monk's Dream [ORG SACD]
DYEAR=1962
DGENRE=Jazz
TTITLE0=Monk's Dream
TTITLE1=Body And Soul
TTITLE2=Bright Misssippi
TTITLE3=Five Spot Blues
TTITLE4=Bolivar Blues
TTITLE5=Just A Gigolo
TTITLE6=Bye-Ya
TTITLE7=Sweet And Lovely
EXTD=YEAR: 1962
EXTT0=
EXTT1=
EXTT2=
EXTT3=
EXTT4=
EXTT5=
EXTT6=
EXTT7=
PLAYORDER=
